<svg width="80" height="80" viewBox="0 0 80 80" fill="none" xmlns="http://www.w3.org/2000/svg">
<rect x="16.2" y="17" width="38" height="54" rx="7" fill="#F8F7F7" stroke="#2D2926" stroke-width="2"/>
<path d="M22.4 39.04L25.1826 41.6L30.4 36.8" stroke="#2D2926" stroke-width="2"/>
<path d="M22.4 28.64L25.1826 31.2L30.4 26.4" stroke="#2D2926" stroke-width="2"/>
<path d="M22.4 49.44L25.1826 52L30.4 47.2" stroke="#2D2926" stroke-width="2"/>
<path d="M22.4 59.84L25.1826 62.4L30.4 57.6" stroke="#2D2926" stroke-width="2"/>
<path d="M35.2 50.8H48" stroke="#2D2926" stroke-width="2" stroke-linecap="round"/>
<path d="M35.2 40H48" stroke="#2D2926" stroke-width="2" stroke-linecap="round"/>
<path d="M35.2 61.2H48" stroke="#2D2926" stroke-width="2" stroke-linecap="round"/>
<path d="M52.7623 3.14244C53.5584 2.00442 55.2437 2.00442 56.0398 3.14244L59.2158 7.68218C59.6982 8.3716 60.5604 8.68543 61.373 8.46733L66.7241 7.03119C68.0655 6.67118 69.3564 7.75442 69.2348 9.13795L68.7497 14.6571C68.676 15.4953 69.1348 16.2899 69.8975 16.6452L74.9198 18.9846C76.1788 19.5711 76.4714 21.2307 75.4889 22.2124L71.5697 26.1284C70.9745 26.7231 70.8151 27.6268 71.171 28.3892L73.5146 33.4096C74.102 34.6681 73.2594 36.1275 71.8758 36.248L66.3563 36.7286C65.518 36.8016 64.8151 37.3914 64.5977 38.2042L63.1659 43.5565C62.807 44.8981 61.2234 45.4745 60.086 44.6774L55.5489 41.4977C54.8598 41.0149 53.9423 41.0149 53.2532 41.4977L48.7161 44.6774C47.5787 45.4745 45.9951 44.8982 45.6362 43.5565L44.2044 38.2042C43.987 37.3914 43.2841 36.8016 42.4459 36.7286L36.9263 36.248C35.5427 36.1275 34.7001 34.6681 35.2875 33.4096L37.6311 28.3892C37.987 27.6268 37.8276 26.7231 37.2324 26.1284L33.3132 22.2124C32.3307 21.2307 32.6233 19.5711 33.8823 18.9846L38.9046 16.6452C39.6673 16.2899 40.1261 15.4953 40.0524 14.6571L39.5673 9.13795C39.4457 7.75442 40.7366 6.67118 42.078 7.03119L47.4291 8.46733C48.2417 8.68543 49.104 8.3716 49.5863 7.68218L52.7623 3.14244Z" fill="#F8F7F7" stroke="#2D2926" stroke-width="2" stroke-linejoin="round"/>
<path d="M42.7873 17.464C42.7873 20.312 44.9953 22.584 47.9073 22.584C50.8193 22.584 53.0273 20.312 53.0273 17.464C53.0273 14.616 50.8193 12.344 47.9073 12.344C44.9953 12.344 42.7873 14.616 42.7873 17.464ZM45.1233 17.464C45.1233 15.832 46.1793 14.584 47.9073 14.584C49.6353 14.584 50.6913 15.832 50.6913 17.464C50.6913 19.096 49.6353 20.344 47.9073 20.344C46.1793 20.344 45.1233 19.096 45.1233 17.464ZM55.7793 30.136C55.7793 32.984 57.9873 35.256 60.8993 35.256C63.8113 35.256 66.0193 32.984 66.0193 30.136C66.0193 27.288 63.8113 25.016 60.8993 25.016C57.9873 25.016 55.7793 27.288 55.7793 30.136ZM58.1153 30.136C58.1153 28.504 59.1713 27.256 60.8993 27.256C62.6273 27.256 63.6833 28.504 63.6833 30.136C63.6833 31.768 62.6273 33.016 60.8993 33.016C59.1713 33.016 58.1153 31.768 58.1153 30.136ZM62.1793 11.672L44.9633 34.648L46.5633 35.928L63.7793 12.92L62.1793 11.672Z" fill="#2D2926"/>
</svg>
