<svg width="103" height="21" viewBox="0 0 103 21" fill="none" xmlns="http://www.w3.org/2000/svg">
<path d="M86.0076 0.408203C87.1656 0.408203 90.5109 0.408203 92.5054 0.408203C93.8562 0.408203 95.2074 0.535497 96.494 0.854246C99.4534 1.61904 101.705 3.91341 102.477 6.84529C103.185 9.20348 103.185 11.8166 102.413 14.1748C101.576 17.1067 99.196 19.2738 96.1722 19.8474C95.2074 20.1024 94.2422 20.2297 93.2129 20.2297C90.9614 20.2935 88.2594 20.2297 86.0079 20.2297V0.408203H86.0076ZM89.9317 16.8517C91.5402 16.9156 93.0842 16.7879 94.6924 16.5968C96.4937 16.2146 97.9735 14.8761 98.5524 13.1551C99.1315 11.4344 99.1315 9.58605 98.6169 7.86501C98.1664 5.88938 96.6224 4.42328 94.6282 3.97723C93.0842 3.7223 91.5402 3.65848 89.9317 3.7223V16.8517Z" fill="#2D2926"/>
<path d="M65.0992 20.1662H61.3679V0.408203H64.9064C67.9299 4.93314 74.2345 14.1748 74.2345 14.1748V0.408203H77.9659V20.1662H74.4919C71.468 15.6409 65.0992 6.27161 65.0992 6.27161C65.0992 6.27161 65.1637 15.6409 65.0992 20.1662Z" fill="#2D2926"/>
<path d="M53.3915 0.408203H49.5315V20.1662H53.3915V0.408203Z" fill="#2D2926"/>
<path d="M42.85 20.1662H38.7327L33.3929 11.0518C34.358 11.0518 35.3229 10.988 36.288 10.8607C37.832 10.542 38.9255 9.2673 39.0542 7.73771C39.2473 6.33542 38.5395 4.93314 37.2528 4.23216C36.5454 3.91341 35.7734 3.78612 34.9369 3.78612C34.1649 3.78612 32.9427 3.78612 32.1707 3.78612V20.1662H28.2462V0.408203C28.2462 0.408203 33.5215 0.408203 36.1594 0.535497C37.1242 0.599315 38.0894 0.790427 39.0542 1.10918C40.6627 1.68286 41.8848 2.89369 42.3353 4.48709C43.0428 6.33542 42.9787 8.43869 42.078 10.2232C41.4347 11.4344 40.3408 12.3903 38.99 12.8363C38.7968 12.9001 38.4108 13.0278 38.4108 13.0278L42.85 20.1662Z" fill="#2D2926"/>
<path d="M16.7225 12.8377H9.25988V9.71473C13.2485 9.71473 17.2372 9.71473 21.2903 9.71473C21.3545 10.2884 21.3545 10.8621 21.29 11.372C21.1613 13.2203 20.4538 14.941 19.36 16.4071C17.7519 18.5742 15.4359 19.9761 12.8625 20.4225C10.6107 20.8685 8.23055 20.6774 6.17189 19.7212C0.89658 17.363 -1.41941 11.3081 0.896581 6.1457C2.50508 2.57633 5.97907 0.218135 9.96772 0.0270228C12.6697 -0.164089 15.3717 0.664521 17.4945 2.3214C18.6525 3.27765 19.6177 4.42466 20.261 5.76313C20.3252 5.89077 20.518 6.40063 20.518 6.40063H16.0147C15.9505 6.273 15.886 6.1457 15.7574 6.01806C13.6345 3.21383 9.51722 2.64015 6.68656 4.74341C5.7859 5.38091 5.07806 6.273 4.69206 7.29272C3.4699 10.0335 4.04873 13.2203 6.10739 15.3874C8.68071 17.8729 13.184 17.8094 15.5 15.2597C16.015 14.6861 16.4007 14.0489 16.6584 13.3479C16.658 13.1565 16.7225 13.0292 16.7225 12.8377Z" fill="#2D2926"/>
</svg>
