<svg width="32" height="32" viewBox="0 0 32 32" fill="none" xmlns="http://www.w3.org/2000/svg">
<path fill-rule="evenodd" clip-rule="evenodd" d="M3.00894 20.8678C2.92901 21.4673 3.39538 22 4.00017 22H5.85798C5.85995 22 5.86157 22.0016 5.86167 22.0035C5.93787 23.5135 7.18626 24.7143 8.71513 24.7143C9.9153 24.7143 10.9426 23.9743 11.3658 22.9257C11.5653 22.4312 11.9876 22 12.5207 22H20.3382C20.8714 22 21.2937 22.4312 21.4932 22.9257C21.9163 23.9743 22.9437 24.7143 24.1438 24.7143C25.344 24.7143 26.3714 23.9743 26.7945 22.9257C26.994 22.4312 27.4163 22 27.9494 22H27.9907C28.4883 22 28.9103 21.6341 28.9806 21.1414L29.8078 15.3515C29.8403 15.1241 29.7935 14.8925 29.6753 14.6956L27.1493 10.4855C26.9686 10.1843 26.6431 10 26.2918 10H21.5384C20.9205 10 20.4505 9.44513 20.552 8.8356L20.6639 8.1644C20.7655 7.55487 20.2955 7 19.6775 7H5.7335C5.2323 7 4.80851 7.37103 4.74227 7.86784L3.00894 20.8678Z" fill="#F5DADF"/>
<circle cx="24.2859" cy="21.8571" r="2.85714" stroke="#2D2926" stroke-width="2"/>
<circle cx="8.85714" cy="21.8571" r="2.85714" stroke="#2D2926" stroke-width="2"/>
<path d="M1 16H7.28571" stroke="#2D2926" stroke-width="2" stroke-linecap="round"/>
<path d="M2 11H11" stroke="#2D2926" stroke-width="2" stroke-linecap="round"/>
<path d="M5.14355 7H16.5748C18.994 7 20.8595 9.13072 20.5397 11.5287L19.1436 22H12M3.14355 22H6" stroke="#2D2926" stroke-width="2" stroke-linecap="round" stroke-linejoin="round"/>
<path d="M22 21.8571H19L20.7143 10H24.7691C26.1558 10 27.4436 10.7182 28.1723 11.898L29.8096 14.5489C29.9326 14.7481 29.9819 14.9841 29.9488 15.2158L29 21.8571H27" stroke="#2D2926" stroke-width="2" stroke-linejoin="round"/>
</svg>
